<svg width="970" height="222" viewBox="0 0 970 222" fill="none" xmlns="http://www.w3.org/2000/svg">
<path fill-rule="evenodd" clip-rule="evenodd" d="M49.667 59.667C49.3 60.033 49 84.558 49 114.167V168H62H75V113.5V59H62.667C55.883 59 50.033 59.3 49.667 59.667ZM88 113.5V168H101H114V113.5V59H101H88V113.5ZM126.667 59.667C126.3 60.033 126 84.558 126 114.167V168H164H202V157V146H177.5H153V135.5V125H175.5H198V114V103H175.5H153V92V81H177.5H202V70V59H164.667C144.133 59 127.033 59.3 126.667 59.667ZM214 113.5V168H227H240V113.5V59H227H214V113.5ZM594.667 59.667C594.3 60.033 594 84.558 594 114.167V168H630H666V157V146H643.5H621V102.5V59H608.167C601.108 59 595.033 59.3 594.667 59.667ZM758.695 59.638C758.313 60.021 758 84.558 758 114.167V168H771H784V162C784 158.7 784.337 156.017 784.75 156.038C785.163 156.059 786.753 157.887 788.285 160.1C793.741 167.985 805.832 171.021 817.721 167.49C827.314 164.642 836.153 153.975 838.94 141.885C840.301 135.984 840.264 119.346 838.877 112.799C836.472 101.455 830.595 93.403 821.424 88.888C809.794 83.163 796.597 85 789.25 93.368C787.462 95.404 785.902 97.616 785.782 98.285C785.662 98.953 785.325 90.5 785.032 79.5L784.5 59.5L771.945 59.222C765.04 59.068 759.077 59.256 758.695 59.638ZM284 85.674C261.707 88.172 247 108.378 249.571 132.976C251.379 150.274 260.176 162.05 275 167.015C280.547 168.874 283.185 169.137 293 168.814C303.074 168.482 305.281 168.078 310.8 165.558C318.345 162.114 325.093 155.109 327.405 148.325C328.279 145.76 328.852 143.519 328.679 143.345C328.505 143.172 323.16 142.732 316.8 142.369L305.237 141.709L303.56 144.268C300.042 149.638 290.261 151.641 283.417 148.394C279.655 146.608 276.577 142.189 275.656 137.25L275.05 134H302.025H329V126.182C329 118.213 327.214 110.317 323.971 103.949C321.649 99.39 314.612 92.353 310.046 90.023C303.568 86.718 291.968 84.782 284 85.674ZM447.527 86.125C426.624 89.13 413.458 107.845 415.314 131.914C417.151 155.744 431.742 169 456.132 169C467.952 169 473.79 167.581 480.91 162.98C487.126 158.962 491.263 153.816 493.515 147.297L494.828 143.5L489.664 142.849C486.824 142.491 481.314 142.153 477.419 142.099C470.876 142.008 470.238 142.186 469.024 144.455C466.192 149.746 455.704 151.694 448.984 148.176C446.82 147.043 444.648 144.69 443.25 141.964C438.924 133.528 437.457 134 468 134H495V128.136C495 115.576 490.893 103.61 484.198 96.664C475.902 88.057 461.96 84.05 447.527 86.125ZM548.5 85.911C540.647 87.32 534.131 91.919 530.662 98.5C529.096 101.47 529.08 101.424 529.04 93.75L529 86H516.5H504V127V168H517H530L530.006 144.25C530.009 131.188 530.456 118.899 530.999 116.943C531.543 114.987 533.37 112.062 535.059 110.443C537.687 107.926 538.915 107.5 543.546 107.5C548.328 107.5 549.344 107.882 552.231 110.768L555.5 114.035L555.796 141.018L556.092 168H569.644H583.195L582.837 137.75C582.48 107.663 582.465 107.47 579.896 102C574.088 89.631 562.075 83.475 548.5 85.911ZM702.5 86.036C694.996 87.04 688.386 89.844 683.583 94.061C679.712 97.46 675.459 104.744 674.853 109.014L674.5 111.5L686.287 111.782L698.074 112.064L701.325 108.617C705.561 104.125 710.506 103.102 715.683 105.647C721.223 108.37 722.018 114.314 717.189 116.899C716.219 117.418 709.892 118.563 703.129 119.443C679.614 122.502 671.822 128.92 671.73 145.303C671.639 161.429 682.124 169.887 700.862 168.802C709.59 168.297 716.045 165.397 719.876 160.262L721.937 157.5L721.968 162.75L722 168H734.5H747V138.943C747 107.175 746.51 103.287 741.781 97.551C734.224 88.382 718.788 83.858 702.5 86.036ZM877.5 85.995C868.897 87.03 864.115 88.541 858.822 91.898C843.725 101.472 845.41 124.772 861.706 131.777C864.343 132.91 872.078 134.99 878.896 136.4C892.51 139.213 896 140.839 896 144.368C896 152.639 876.789 153.199 873.701 145.017L872.562 142H863.92C859.168 142 853.251 142.278 850.771 142.618C846.319 143.228 846.273 143.274 846.973 146.368C849.288 156.586 857.847 164.478 869.974 167.577C874.805 168.811 879.374 169.122 887.974 168.803C897.928 168.434 900.351 167.991 905.734 165.558C916.856 160.532 922.981 151.896 922.994 141.218C923.011 128.747 914.476 122.447 891.722 118.134C878.346 115.598 875 113.97 875 110C875 102.291 892.315 101.812 895.784 109.425C896.951 111.986 897.024 112 909.09 112H921.223L920.528 108.297C918.941 99.84 912.883 92.594 904.339 88.931C901.029 87.512 883.677 84.349 883.526 85.137C883.512 85.212 880.8 85.598 877.5 85.995ZM329.973 86.722C329.958 87.15 336.122 105.612 343.671 127.75L357.396 168L372.448 167.998L387.5 167.995L401.27 127.748C408.844 105.611 415.032 87.15 415.02 86.722C415.009 86.294 408.819 86.069 401.263 86.222L387.527 86.5L380.057 114.381C375.949 129.716 372.377 141.641 372.121 140.881C371.864 140.122 368.439 127.575 364.511 113L357.368 86.5L343.684 86.222C336.158 86.069 329.988 86.294 329.973 86.722ZM282.299 106.901C279.072 108.927 276 113.585 276 116.45C276 117.778 278.064 118 290.43 118H304.86L303.935 114.774C303.426 113 301.679 110.218 300.053 108.592C296.098 104.637 287.245 103.793 282.299 106.901ZM448.304 106.956C444.952 109 442.664 111.973 441.537 115.75L440.865 118H455.558H470.25L469.613 114.816C467.925 106.377 456.291 102.086 448.304 106.956ZM793 107.752C782.596 112.949 781.403 137.271 791.149 145.472C793.459 147.416 795.274 148 799.006 148C803.11 148 804.391 147.497 807.316 144.738C811.467 140.823 812.987 135.932 812.994 126.462C813.001 117.991 810.271 111.693 805.102 108.258C801.023 105.547 797.691 105.408 793 107.752ZM711.316 133.973C702.207 135.877 698.366 137.907 696.98 141.552C694.794 147.302 700.827 152.689 708.326 151.683C713.284 151.018 716.967 148.403 719.248 143.929C720.972 140.548 721.709 131.876 720.25 132.132C719.837 132.204 715.817 133.033 711.316 133.973Z" fill="white"/>
</svg>
